<svg xmlns="http://www.w3.org/2000/svg" width="136" zoomAndPan="magnify"
     viewBox="0 0 102 101.999999" height="136" preserveAspectRatio="xMidYMid meet" version="1.0">
    <path fill="#1e1b1e"
          d="M 80.359375 44.625 L 80.34375 44.625 C 79.804688 44.675781 79.253906 44.703125 78.707031 44.703125 C 72.683594 44.703125 67.074219 41.671875 63.777344 36.636719 L 63.777344 64.117188 C 63.777344 75.328125 54.683594 84.417969 43.464844 84.417969 C 32.253906 84.417969 23.160156 75.328125 23.160156 64.117188 C 23.160156 52.898438 32.253906 43.804688 43.464844 43.804688 C 43.890625 43.804688 44.304688 43.839844 44.71875 43.871094 L 44.71875 53.878906 C 44.304688 53.828125 43.898438 53.753906 43.464844 53.753906 C 37.746094 53.753906 33.101562 58.386719 33.101562 64.117188 C 33.101562 69.835938 37.746094 74.476562 43.464844 74.476562 C 49.191406 74.476562 54.246094 69.96875 54.246094 64.25 L 54.351562 17.582031 L 63.921875 17.582031 C 64.824219 26.164062 71.746094 32.867188 80.359375 33.5 Z M 51 -0.015625 C 22.828125 -0.015625 -0.015625 22.828125 -0.015625 51 C -0.015625 79.171875 22.828125 102.015625 51 102.015625 C 79.171875 102.015625 102.015625 79.171875 102.015625 51 C 102.015625 22.828125 79.171875 -0.015625 51 -0.015625 Z M 51 -0.015625 "
          fill-opacity="1" fill-rule="nonzero"/>
</svg>