<svg xmlns="http://www.w3.org/2000/svg" width="136" zoomAndPan="magnify"
     viewBox="0 0 102 101.999999" height="136" preserveAspectRatio="xMidYMid meet" version="1.0">
    <path fill="#000000"
          d="M 50.9375 0 C 79.121094 0 102 22.75 102 50.9375 C 102 79.121094 79.121094 102 50.9375 102 C 22.75 102 0 79.121094 0 50.9375 C 0 22.75 22.75 0 50.9375 0 Z M 57.257812 50.9375 L 83.167969 76.972656 L 70.652344 76.972656 L 50.9375 57.257812 L 31.347656 76.972656 L 18.832031 76.972656 L 44.742188 50.9375 L 18.832031 25.027344 L 31.347656 25.027344 L 50.9375 44.742188 L 70.652344 25.027344 L 83.167969 25.027344 Z M 71.414062 26.667969 L 50.9375 47.144531 L 30.585938 26.667969 L 22.878906 26.667969 L 47.144531 50.9375 L 22.878906 75.203125 L 30.585938 75.203125 L 50.9375 54.855469 L 71.414062 75.203125 L 79.121094 75.203125 L 54.855469 50.9375 L 79.121094 26.667969 Z M 71.414062 26.667969 "
          fill-opacity="1" fill-rule="evenodd"/>
</svg>