<?xml version="1.0" encoding="utf-8"?>
<!-- Generator: Adobe Illustrator 16.0.0, SVG Export Plug-In . SVG Version: 6.00 Build 0)  -->
<!DOCTYPE svg PUBLIC "-//W3C//DTD SVG 1.1//EN" "http://www.w3.org/Graphics/SVG/1.1/DTD/svg11.dtd">
<svg version="1.1" xmlns="http://www.w3.org/2000/svg" xmlns:xlink="http://www.w3.org/1999/xlink" x="0px" y="0px" width="3416px"
	 height="280px" viewBox="0 0 3416 280" enable-background="new 0 0 3416 280" xml:space="preserve">
<g id="white_bg">
	<rect fill="#FFFFFF" width="3416" height="280"/>
</g>
<g id="barion">
	<rect x="20" y="21.341" fill="#1994D2" width="562.656" height="237.955"/>
	<g>
		<path fill="#FFFFFF" d="M496.739,186.255v-53.394c0-3.845-1.396-6.638-4.18-8.376c-2.787-1.737-6.263-2.61-10.423-2.61
			c-2.037,0-3.982,0.161-5.843,0.484c-1.859,0.321-3.406,0.706-4.648,1.166v62.73h-22.433v-71.791
			c3.983-1.556,8.894-2.86,14.733-3.914c5.846-1.052,12.171-1.577,18.987-1.577c11.769,0,20.753,1.895,26.952,5.698
			c6.194,3.794,9.292,9.771,9.292,17.916v53.668H496.739z"/>
		<path fill="#FFFFFF" d="M298.096,186.255v-76.331c7.48,0,15.084,0.413,22.438,1.313v75.018H298.096z"/>
		<path fill="#FFFFFF" d="M321.725,89.753c0,2.743-1.219,5.104-3.653,7.07c-2.433,1.966-5.374,2.949-8.825,2.949
			s-6.375-0.983-8.761-2.949c-2.39-1.966-3.586-4.327-3.586-7.07c0-2.746,1.196-5.104,3.586-7.072
			c2.386-1.969,5.31-2.949,8.761-2.949s6.392,0.98,8.825,2.949C320.506,84.649,321.725,87.007,321.725,89.753"/>
		<path fill="#FFFFFF" d="M284.179,123.935c-3.101-1.008-6.396-1.556-9.891-1.645c-3.499-0.094-6.352,0.366-8.564,1.37v62.597
			h-22.435v-71.793c4.16-1.74,9.006-3.09,14.534-4.052c5.532-0.957,12.324-1.439,20.381-1.439c1.77,0,3.628,0.041,5.576,0.137
			c1.946,0.092,3.495,0.23,4.648,0.411L284.179,123.935z"/>
		<path fill="#FFFFFF" d="M149.762,145.9c0,12.905-3.674,22.949-11.021,30.136c-7.347,7.185-17.921,10.775-31.73,10.775
			c-7.077,0-13.12-0.525-18.118-1.581c-5.005-1.055-8.919-2.358-11.749-3.914V77.121h22.302v35.01
			c1.946-0.731,4.247-1.395,6.903-1.993c2.656-0.594,5.887-0.894,9.689-0.894c4.956,0,9.519,0.894,13.677,2.681
			c4.159,1.783,7.722,4.276,10.687,7.478c2.963,3.208,5.267,7.047,6.903,11.536C148.942,135.416,149.762,140.408,149.762,145.9
			 M126.923,147.141c0-3.664-0.307-7.074-0.928-10.232c-0.616-3.161-1.634-5.904-3.05-8.239c-1.418-2.331-3.211-4.138-5.378-5.418
			c-2.166-1.282-4.845-1.924-8.033-1.924c-4.159,0-7.524,0.598-10.088,1.787v49.555c0.974,0.456,2.168,0.822,3.582,1.098
			c1.418,0.274,3.142,0.41,5.179,0.41c6.286,0,10.972-2.469,14.073-7.408C125.379,161.828,126.923,155.283,126.923,147.141"/>
		<path fill="#FFFFFF" d="M231.015,186.255c0,0.042-35.248,0.533-38.445,0.533c-5.115,0-9.825-0.859-14.133-2.572
			c-4.305-1.717-8.007-4.155-11.105-7.31c-3.091-3.151-5.516-6.984-7.265-11.483c-1.748-4.498-2.626-9.583-2.626-15.236
			c0-6.22,0.898-11.855,2.695-16.913c1.792-5.055,4.505-9.395,8.138-13.012c3.636-3.62,8.167-6.405,13.599-8.355
			c5.424-1.941,11.774-2.917,19.041-2.917c6.37,0,12.251,0.534,17.632,1.597c5.385,1.07,9.506,1.877,12.469,3.458V186.255z
			 M208.451,123.046c-0.987-0.47-2.195-0.882-3.634-1.258c-1.433-0.369-3.186-0.555-5.248-0.555c-6.371,0-11.126,2.37-14.268,7.098
			c-3.14,4.737-4.712,11.648-4.712,20.741c0,17.257,6.149,25.885,18.439,25.885c1.799,0,3.545-0.158,5.25-0.49
			c1.705-0.324,3.098-0.769,4.173-1.318V123.046z"/>
		<path fill="#FFFFFF" d="M386.38,202.203c29.102-0.721,52.131-25.704,51.436-55.798c-0.243-10.407-3.289-20.059-8.371-28.206
			c-10.118-0.144-20.297,2.895-24.093,3.94c6.96,5.887,11.482,14.757,11.713,24.779c0.321,13.884-7.679,25.965-19.291,31.142
			c-1.238-2.983-1.701-4.098-2.915-7.01c-11.357,6.882-27.883,14.552-46.828,15.39C357.854,196.498,371.463,202.569,386.38,202.203"
			/>
		<path fill="#FFFFFF" d="M383.847,93.202c-29.106,0.72-52.13,25.701-51.436,55.794c0.238,10.407,3.284,20.062,8.369,28.206
			c10.12,0.147,20.297-2.895,24.086-3.935c-6.951-5.892-11.477-14.763-11.704-24.784c-0.323-13.881,7.677-25.959,19.289-31.141
			c1.235,2.987,1.698,4.102,2.917,7.01c11.353-6.882,27.878-14.552,46.826-15.391C412.371,98.911,398.754,92.833,383.847,93.202"/>
	</g>
</g>
<g id="amex">
	<rect x="2132" y="20" fill-rule="evenodd" clip-rule="evenodd" fill="#2C6FB6" width="238.314" height="238.318"/>
	<polygon fill-rule="evenodd" clip-rule="evenodd" fill="#FFFFFF" points="2218.33,220.608 2218.33,135.214 2370.314,135.352 
		2370.314,158.94 2352.75,177.711 2370.314,196.655 2370.314,220.745 2342.268,220.745 2327.363,204.297 2312.563,220.808 	"/>
	<polygon fill-rule="evenodd" clip-rule="evenodd" fill="#2C6FB6" points="2228.482,211.245 2228.482,144.611 2284.981,144.611 
		2284.981,159.961 2246.774,159.961 2246.774,170.383 2284.07,170.383 2284.07,185.477 2246.774,185.477 2246.774,195.711 
		2284.981,195.711 2284.981,211.245 	"/>
	<polygon fill-rule="evenodd" clip-rule="evenodd" fill="#2C6FB6" points="2284.699,211.245 2315.962,177.89 2284.699,144.611 
		2308.896,144.611 2328,165.733 2347.158,144.611 2370.315,144.611 2370.315,145.137 2339.719,177.89 2370.315,210.299 
		2370.315,211.245 2346.925,211.245 2327.483,189.914 2308.239,211.245 	"/>
	<polygon fill-rule="evenodd" clip-rule="evenodd" fill="#FFFFFF" points="2225.419,59.42 2262.055,59.42 2274.924,88.64 
		2274.924,59.42 2320.152,59.42 2327.952,81.313 2335.777,59.42 2370.314,59.42 2370.314,144.813 2187.792,144.813 	"/>
	<path fill-rule="evenodd" clip-rule="evenodd" fill="#2C6FB6" d="M2232.355,68.699l-29.564,66.577h20.277l5.578-13.332h30.224
		l5.574,13.332h20.782l-29.442-66.577H2232.355z M2234.896,107.001l8.867-21.194l8.86,21.194H2234.896z"/>
	<polygon fill-rule="evenodd" clip-rule="evenodd" fill="#2C6FB6" points="2284.949,135.264 2284.949,68.687 2313.455,68.786 
		2328.12,109.715 2342.882,68.687 2370.315,68.687 2370.315,135.264 2352.663,135.419 2352.663,89.688 2336,135.264 
		2319.886,135.264 2302.877,89.533 2302.877,135.264 	"/>
</g>
<g id="maestro">
	<path fill="#231F20" d="M1250.94,256.419v-15.53c0-5.85-3.725-9.783-9.729-9.834c-3.158-0.05-6.418,0.932-8.697,4.399
		c-1.707-2.744-4.397-4.399-8.179-4.399c-2.638,0-5.225,0.777-7.245,3.676v-3.056h-5.385v24.744h5.438v-13.718
		c0-4.296,2.381-6.574,6.054-6.574c3.573,0,5.386,2.328,5.386,6.524v13.768h5.432v-13.718c0-4.296,2.485-6.574,6.058-6.574
		c3.677,0,5.435,2.328,5.435,6.524v13.768H1250.94z M1281.271,244.048v-12.373h-5.385v3.002c-1.709-2.225-4.295-3.622-7.813-3.622
		c-6.938,0-12.371,5.435-12.371,12.993c0,7.558,5.434,12.989,12.371,12.989c3.518,0,6.104-1.396,7.813-3.625v3.007h5.385V244.048z
		 M1261.241,244.048c0-4.35,2.845-7.921,7.505-7.921c4.451,0,7.453,3.416,7.453,7.921c0,4.501-3.002,7.918-7.453,7.918
		C1264.086,251.966,1261.241,248.396,1261.241,244.048 M1396.456,231.024c1.911,0,3.681,0.332,5.308,0.995
		c1.629,0.663,3.037,1.577,4.227,2.738c1.189,1.166,2.116,2.536,2.787,4.12c0.674,1.588,1.01,3.307,1.01,5.17
		c0,1.858-0.336,3.58-1.01,5.164c-0.671,1.589-1.598,2.961-2.787,4.125c-1.189,1.159-2.598,2.069-4.227,2.731
		c-1.627,0.666-3.396,0.997-5.308,0.997c-1.912,0-3.684-0.331-5.309-0.997c-1.63-0.662-3.032-1.572-4.212-2.731
		c-1.18-1.164-2.104-2.536-2.777-4.125c-0.673-1.584-1.008-3.306-1.008-5.164c0-1.863,0.335-3.582,1.008-5.17
		c0.673-1.584,1.598-2.954,2.777-4.12c1.18-1.161,2.582-2.075,4.212-2.738C1392.772,231.356,1394.544,231.024,1396.456,231.024
		 M1396.456,236.116c-1.103,0-2.128,0.193-3.075,0.581c-0.945,0.388-1.766,0.927-2.454,1.626c-0.688,0.699-1.234,1.536-1.628,2.507
		c-0.396,0.974-0.594,2.044-0.594,3.218c0,1.17,0.198,2.242,0.594,3.215c0.394,0.972,0.94,1.81,1.628,2.504
		c0.688,0.7,1.509,1.241,2.454,1.63c0.947,0.386,1.973,0.584,3.075,0.584c1.101,0,2.128-0.198,3.073-0.584
		c0.947-0.389,1.77-0.93,2.467-1.63c0.697-0.694,1.246-1.532,1.641-2.504c0.398-0.973,0.596-2.045,0.596-3.215
		c0-1.174-0.197-2.244-0.596-3.218c-0.395-0.971-0.943-1.808-1.641-2.507s-1.52-1.238-2.467-1.626
		C1398.584,236.31,1397.557,236.116,1396.456,236.116 M1310.563,244.048c-0.049-7.713-4.811-12.993-11.748-12.993
		c-7.247,0-12.318,5.28-12.318,12.993c0,7.866,5.278,12.989,12.68,12.989c3.727,0,7.143-0.933,10.146-3.468l-2.64-3.984
		c-2.068,1.655-4.709,2.588-7.193,2.588c-3.471,0-6.627-1.605-7.404-6.055h18.375
		C1310.514,245.444,1310.563,244.77,1310.563,244.048 M1292.139,241.873c0.568-3.572,2.74-6.004,6.572-6.004
		c3.467,0,5.693,2.174,6.262,6.004H1292.139z M1333.233,237.989c-1.501-0.931-4.557-2.12-7.714-2.12
		c-2.949,0-4.707,1.085-4.707,2.897c0,1.658,1.861,2.122,4.192,2.433l2.534,0.361c5.385,0.778,8.645,3.055,8.645,7.402
		c0,4.713-4.14,8.074-11.284,8.074c-4.039,0-7.765-1.032-10.714-3.21l2.535-4.19c1.812,1.396,4.504,2.588,8.231,2.588
		c3.675,0,5.642-1.084,5.642-3.003c0-1.397-1.398-2.171-4.348-2.587l-2.538-0.364c-5.538-0.776-8.539-3.26-8.539-7.296
		c0-4.916,4.039-7.92,10.302-7.92c3.932,0,7.504,0.882,10.09,2.587L1333.233,237.989z M1359.1,236.593h-8.8v11.183
		c0,2.483,0.88,4.139,3.57,4.139c1.397,0,3.158-0.467,4.765-1.397l1.551,4.606c-1.709,1.189-4.399,1.914-6.728,1.914
		c-6.368,0-8.593-3.418-8.593-9.162v-11.282h-5.021v-4.918h5.021l-0.002-7.503h5.437v7.503h8.8V236.593z M1377.727,231.055
		c1.09,0,2.641,0.208,3.832,0.674l-1.658,5.072c-1.139-0.466-2.277-0.623-3.362-0.623c-3.521,0-5.28,2.277-5.28,6.368v13.873h-5.383
		v-24.744h5.334v3.002C1372.606,232.502,1374.622,231.055,1377.727,231.055 M1414.994,252.814c0.346,0,0.673,0.067,0.977,0.193
		c0.304,0.132,0.568,0.304,0.795,0.53c0.227,0.224,0.408,0.481,0.539,0.786c0.129,0.299,0.196,0.618,0.196,0.951
		c0,0.34-0.067,0.659-0.196,0.956c-0.131,0.299-0.313,0.558-0.539,0.779c-0.227,0.224-0.491,0.4-0.795,0.531
		c-0.304,0.132-0.631,0.198-0.977,0.198c-0.354,0-0.684-0.066-0.992-0.198c-0.309-0.131-0.575-0.308-0.801-0.531
		c-0.225-0.222-0.4-0.48-0.534-0.779c-0.128-0.297-0.194-0.616-0.194-0.956c0-0.333,0.066-0.652,0.194-0.951
		c0.134-0.305,0.31-0.563,0.534-0.786c0.226-0.227,0.492-0.398,0.801-0.53C1414.311,252.882,1414.641,252.814,1414.994,252.814
		 M1414.994,257.199c0.268,0,0.514-0.052,0.742-0.152c0.232-0.1,0.432-0.237,0.604-0.409c0.174-0.172,0.309-0.379,0.408-0.614
		c0.098-0.231,0.148-0.48,0.148-0.748c0-0.264-0.051-0.512-0.148-0.743c-0.1-0.234-0.234-0.442-0.408-0.613
		c-0.172-0.173-0.371-0.31-0.604-0.406c-0.229-0.101-0.475-0.146-0.742-0.146c-0.27,0-0.521,0.046-0.758,0.146
		c-0.234,0.097-0.438,0.233-0.611,0.406c-0.174,0.171-0.309,0.379-0.407,0.613c-0.101,0.231-0.148,0.479-0.148,0.743
		c0,0.268,0.048,0.517,0.148,0.748c0.099,0.235,0.233,0.442,0.407,0.614s0.377,0.31,0.611,0.409
		C1414.473,257.147,1414.725,257.199,1414.994,257.199 M1415.141,254.126c0.293,0,0.519,0.066,0.68,0.198
		c0.156,0.127,0.236,0.302,0.236,0.531c0,0.187-0.063,0.346-0.19,0.465c-0.126,0.128-0.308,0.203-0.537,0.229l0.745,0.867h-0.584
		l-0.693-0.861h-0.224v0.861h-0.487v-2.29H1415.141z M1414.573,254.551v0.614h0.56c0.129,0,0.232-0.026,0.309-0.076
		c0.074-0.051,0.115-0.128,0.115-0.233c0-0.101-0.041-0.178-0.115-0.229c-0.076-0.049-0.18-0.075-0.309-0.075H1414.573z"/>
	<rect x="1269.807" y="42.847" fill="#7773B4" width="81.637" height="146.708"/>
	<path fill="#E91D25" d="M1274.99,116.201c0-29.764,13.936-56.27,35.635-73.354c-15.871-12.493-35.893-19.948-57.659-19.948
		c-51.526,0-93.296,41.772-93.296,93.302c0,51.528,41.77,93.303,93.296,93.303c21.767,0,41.788-7.456,57.659-19.948
		C1288.926,172.47,1274.99,145.965,1274.99,116.201"/>
	<path fill="#119FDA" d="M1452.681,174.017v-3.003h1.208v-0.611h-3.081v0.611h1.21v3.003H1452.681z M1458.669,174.017v-3.621h-0.946
		l-1.089,2.489l-1.087-2.489h-0.946v3.621h0.668v-2.733l1.021,2.356h0.69l1.02-2.362v2.739H1458.669z"/>
	<path fill="#119FDA" d="M1461.581,116.201c0,51.528-41.771,93.303-93.297,93.303c-21.765,0-41.788-7.456-57.659-19.948
		c21.7-17.086,35.635-43.591,35.635-73.354c0-29.764-13.935-56.27-35.635-73.354c15.871-12.493,35.895-19.948,57.659-19.948
		C1419.81,22.899,1461.581,64.671,1461.581,116.201"/>
</g>
<g id="mc">
	<rect x="821.213" y="47.42" fill="#F16522" width="102.536" height="184.261"/>
	<path fill="#E41B24" d="M827.724,139.55c0-37.381,17.503-70.674,44.758-92.131c-19.933-15.691-45.083-25.054-72.42-25.054
		c-64.715,0-117.176,52.465-117.176,117.185c0,64.718,52.461,117.185,117.176,117.185c27.337,0,52.487-9.362,72.42-25.055
		C845.227,210.224,827.724,176.932,827.724,139.55"/>
	<path fill="#F89E1C" d="M1062.077,139.55c0,64.718-52.462,117.185-117.176,117.185c-27.337,0-52.487-9.362-72.42-25.055
		c27.256-21.457,44.758-54.749,44.758-92.13c0-37.381-17.502-70.674-44.758-92.131c19.933-15.691,45.083-25.054,72.42-25.054
		C1009.615,22.365,1062.077,74.83,1062.077,139.55"/>
	<path fill="#FFFFFF" d="M1050.896,212.165v-3.772h1.522v-0.769h-3.874v0.769h1.521v3.772H1050.896z M1058.418,212.165v-4.549
		h-1.188l-1.365,3.129l-1.366-3.129h-1.188v4.549h0.838v-3.431l1.281,2.958h0.87l1.28-2.966v3.438H1058.418z"/>
</g>
<g id="visa">
	<path fill="#1434CB" d="M1739.441,68.402l-61.963,147.822h-40.42L1606.57,98.252c-1.854-7.264-3.463-9.927-9.092-12.987
		c-9.191-4.987-24.373-9.667-37.721-12.57l0.904-4.292h65.068c8.293,0,15.75,5.52,17.637,15.071l16.1,85.541l39.799-100.617h40.176
		V68.402z M1897.826,167.959c0.156-39.01-53.955-41.162-53.58-58.594c0.115-5.301,5.164-10.94,16.221-12.377
		c5.479-0.721,20.576-1.269,37.699,6.611l6.717-31.344c-9.203-3.342-21.041-6.559-35.768-6.559
		c-37.799,0-64.402,20.095-64.621,48.87c-0.25,21.276,18.982,33.151,33.475,40.223c14.904,7.248,19.902,11.896,19.846,18.377
		c-0.105,9.917-11.887,14.293-22.895,14.465c-19.225,0.298-30.379-5.201-39.268-9.332l-6.93,32.384
		c8.93,4.1,25.422,7.671,42.52,7.854C1871.424,218.537,1897.701,198.692,1897.826,167.959 M1997.635,216.224H2033l-30.875-147.822
		h-32.639c-7.342,0-13.535,4.272-16.271,10.841l-57.383,136.98h40.148l7.975-22.08h49.063L1997.635,216.224z M1954.969,163.85
		l20.127-55.508l11.582,55.508H1954.969z M1794.076,68.402l-31.621,147.822h-38.238l31.633-147.822H1794.076L1794.076,68.402z"/>
</g>
<g id="Layer_2">
	<path id="Base_1_" fill="#FFFFFF" d="M3271.414,22.466h-207.525c-64.854,0-117.916,53.063-117.916,117.911l0,0
		c0,64.85,53.063,117.912,117.916,117.912h207.525c64.85,0,117.908-53.063,117.908-117.912l0,0
		C3389.322,75.528,3336.264,22.466,3271.414,22.466z"/>
	<path id="Outline" fill="#3D4144" d="M3271.414,32.014c14.561,0,28.709,2.893,42.037,8.553c12.91,5.481,24.463,13.32,34.484,23.287
		c9.967,9.962,17.805,21.578,23.291,34.488c5.656,13.325,8.549,27.474,8.549,42.036c0,14.56-2.893,28.713-8.549,42.037
		c-5.486,12.91-13.324,24.466-23.291,34.488c-9.963,9.967-21.574,17.806-34.484,23.286c-13.328,5.661-27.477,8.553-42.037,8.553
		h-207.525c-14.563,0-28.711-2.892-42.035-8.553c-12.91-5.48-24.471-13.319-34.492-23.286c-9.963-9.963-17.803-21.578-23.283-34.488
		c-5.664-13.324-8.553-27.478-8.553-42.037c0-14.563,2.889-28.711,8.553-42.036c5.48-12.91,13.32-24.466,23.283-34.488
		c9.965-9.966,21.582-17.806,34.492-23.287c13.324-5.66,27.473-8.553,42.035-8.553H3271.414 M3271.414,22.466h-207.525
		c-64.854,0-117.916,53.063-117.916,117.911l0,0c0,64.85,53.063,117.912,117.916,117.912h207.525
		c64.85,0,117.908-53.063,117.908-117.912l0,0C3389.322,75.528,3336.264,22.466,3271.414,22.466L3271.414,22.466z"/>
	<g id="G_Pay_Lockup_1_">
		<g id="Pay_Typeface_3_">
			<path id="Letter_p_3_" fill="#3D4144" d="M3157.395,148.751v35.667h-11.32V96.337h30.006c7.605,0,14.09,2.533,19.396,7.604
				c5.424,5.071,8.137,11.261,8.137,18.571c0,7.489-2.713,13.679-8.137,18.69c-5.246,5.011-11.732,7.489-19.396,7.489h-18.686
				V148.751z M3157.395,107.184V137.9h18.926c4.477,0,8.254-1.529,11.201-4.537c3.004-3.008,4.537-6.665,4.537-10.792
				c0-4.067-1.533-7.664-4.537-10.671c-2.947-3.123-6.664-4.656-11.201-4.656h-18.926V107.184z"/>
			<path id="Letter_a_3_" fill="#3D4144" d="M3233.211,122.162c8.369,0,14.973,2.239,19.809,6.72s7.25,10.611,7.25,18.391v37.146
				h-10.787v-8.369h-0.471c-4.66,6.896-10.91,10.313-18.693,10.313c-6.66,0-12.201-1.943-16.682-5.896
				c-4.482-3.947-6.721-8.843-6.721-14.738c0-6.245,2.357-11.201,7.074-14.857c4.717-3.713,11.021-5.541,18.865-5.541
				c6.725,0,12.262,1.238,16.566,3.712v-2.589c0-3.951-1.533-7.253-4.656-10.022c-3.127-2.777-6.783-4.126-10.965-4.126
				c-6.311,0-11.322,2.648-14.975,8.015l-9.967-6.246C3214.342,126.109,3222.479,122.162,3233.211,122.162z M3218.588,165.907
				c0,2.947,1.238,5.426,3.775,7.365c2.475,1.947,5.422,2.947,8.783,2.947c4.777,0,9.023-1.769,12.73-5.306
				c3.717-3.537,5.605-7.664,5.605-12.436c-3.537-2.772-8.434-4.187-14.738-4.187c-4.602,0-8.434,1.119-11.5,3.302
				C3220.121,159.893,3218.588,162.66,3218.588,165.907z"/>
			<path id="Letter_y_3_" fill="#3D4144" d="M3321.82,124.105l-37.734,86.786h-11.672l14.029-30.365l-24.875-56.421h12.32
				l17.92,43.271h0.24l17.447-43.271H3321.82z"/>
		</g>
		<g id="G_Mark_1_">
			<path id="Blue_500" fill="#547EBE" d="M3112.367,141.557c0-3.691-0.332-7.22-0.943-10.62h-47.449v19.455l27.328,0.008
				c-1.107,6.477-4.678,11.992-10.143,15.67v12.624h16.27C3106.926,169.906,3112.367,156.91,3112.367,141.557z"/>
			<path id="Green_500_1_" fill="#34A852" d="M3081.166,166.069c-4.529,3.055-10.355,4.845-17.178,4.845
				c-13.18,0-24.355-8.882-28.359-20.848h-16.775v13.013c8.314,16.499,25.393,27.819,45.135,27.819
				c13.641,0,25.105-4.485,33.445-12.209L3081.166,166.069z"/>
			<path id="Yellow_500_1_" fill="#F8BA16" d="M3034.049,140.408c0-3.363,0.561-6.609,1.58-9.664v-13.017h-16.775
				c-3.439,6.818-5.375,14.521-5.375,22.681c0,8.159,1.941,15.857,5.375,22.68l16.775-13.017
				C3034.609,147.017,3034.049,143.77,3034.049,140.408z"/>
			<path id="Red_500" fill="#E84336" d="M3063.988,109.897c7.445,0,14.113,2.567,19.381,7.574l14.414-14.401
				c-8.758-8.155-20.172-13.162-33.795-13.162c-19.732,0-36.82,11.321-45.135,27.819l16.775,13.017
				C3039.633,118.778,3050.809,109.897,3063.988,109.897z"/>
		</g>
	</g>
</g>
<g id="Layer_3">
	<path fill="#FFFFFF" d="M2811.978,25.502l3.803,0.006c1.044,0.004,2.087,0.019,3.137,0.044c1.902,0.05,4.137,0.155,6.29,0.545
		c1.991,0.359,3.679,0.914,5.312,1.743c3.3,1.673,5.981,4.356,7.653,7.657c0.828,1.628,1.379,3.314,1.737,5.312
		c0.384,2.131,0.493,4.374,0.539,6.285c0.03,1.039,0.046,2.082,0.049,3.135c0.011,1.263,0.011,2.535,0.011,3.805v172.591
		c0,1.268,0,2.535-0.011,3.818c-0.003,1.041-0.019,2.081-0.049,3.12c-0.05,1.913-0.155,4.153-0.539,6.301
		c-0.312,1.843-0.897,3.627-1.737,5.298c-1.684,3.298-4.364,5.98-7.662,7.662c-1.671,0.843-3.459,1.431-5.303,1.742
		c-2.076,0.332-4.174,0.513-6.275,0.539c-1.049,0.025-2.097,0.041-3.16,0.041c-1.264,0.009-2.536,0.009-3.799,0.009H2504.65
		c-1.254,0-2.507,0-3.773-0.009c-1.05,0-2.098-0.016-3.121-0.041c-2.105-0.026-4.209-0.207-6.289-0.539
		c-1.853-0.309-3.646-0.898-5.318-1.747c-1.639-0.832-3.137-1.921-4.432-3.225c-1.301-1.299-2.387-2.796-3.215-4.433
		c-0.845-1.674-1.433-3.465-1.742-5.313c-0.341-2.079-0.522-4.181-0.546-6.286c-0.024-1.041-0.039-2.083-0.044-3.125l-0.006-3.046
		V53.27l0.006-3.04c0.005-1.043,0.02-2.087,0.044-3.135c0.05-1.902,0.155-4.138,0.546-6.296c0.307-1.846,0.896-3.635,1.742-5.306
		c1.673-3.298,4.354-5.979,7.652-7.653c1.67-0.845,3.46-1.429,5.306-1.738c2.083-0.34,4.187-0.522,6.296-0.543
		c1.044-0.025,2.087-0.041,3.125-0.046l3.813-0.011H2811.978"/>
	<path d="M2811.978,25.502l3.803,0.006c1.044,0.004,2.087,0.019,3.137,0.044c1.902,0.05,4.137,0.155,6.29,0.545
		c1.991,0.359,3.679,0.914,5.312,1.743c3.3,1.673,5.981,4.356,7.653,7.657c0.828,1.628,1.379,3.314,1.737,5.312
		c0.384,2.131,0.493,4.374,0.539,6.285c0.03,1.039,0.046,2.082,0.049,3.135c0.011,1.263,0.011,2.535,0.011,3.805v172.591
		c0,1.268,0,2.535-0.011,3.818c-0.003,1.041-0.019,2.081-0.049,3.12c-0.05,1.913-0.155,4.153-0.539,6.301
		c-0.312,1.843-0.897,3.627-1.737,5.298c-1.684,3.298-4.364,5.98-7.662,7.662c-1.671,0.843-3.459,1.431-5.303,1.742
		c-2.076,0.332-4.174,0.513-6.275,0.539c-1.049,0.025-2.097,0.041-3.16,0.041c-1.264,0.009-2.536,0.009-3.799,0.009H2504.65
		c-1.254,0-2.507,0-3.773-0.009c-1.05,0-2.098-0.016-3.121-0.041c-2.105-0.026-4.209-0.207-6.289-0.539
		c-1.853-0.309-3.646-0.898-5.318-1.747c-1.639-0.832-3.137-1.921-4.432-3.225c-1.301-1.299-2.387-2.796-3.215-4.433
		c-0.845-1.674-1.433-3.465-1.742-5.313c-0.341-2.079-0.522-4.181-0.546-6.286c-0.024-1.041-0.039-2.083-0.044-3.125l-0.006-3.046
		V53.27l0.006-3.04c0.005-1.043,0.02-2.087,0.044-3.135c0.05-1.902,0.155-4.138,0.546-6.296c0.307-1.846,0.896-3.635,1.742-5.306
		c1.673-3.298,4.354-5.979,7.652-7.653c1.67-0.845,3.46-1.429,5.306-1.738c2.083-0.34,4.187-0.522,6.296-0.543
		c1.044-0.025,2.087-0.041,3.125-0.046l3.813-0.011H2811.978 M2811.978,20.51h-307.283l-3.839,0.006
		c-1.078,0.004-2.156,0.019-3.234,0.048c-2.358,0.033-4.71,0.24-7.039,0.619c-2.328,0.401-4.584,1.144-6.693,2.208
		c-4.232,2.164-7.675,5.606-9.836,9.839c-1.066,2.109-1.81,4.365-2.207,6.695c-0.385,2.327-0.593,4.681-0.624,7.039
		c-0.024,1.073-0.039,2.151-0.044,3.229l-0.006,3.841v172.591l0.006,3.844c0.005,1.078,0.02,2.156,0.051,3.229
		c0.063,2.347,0.203,4.713,0.623,7.035c0.42,2.36,1.112,4.552,2.201,6.694c2.152,4.24,5.6,7.687,9.839,9.84
		c2.144,1.092,4.334,1.781,6.69,2.206c2.322,0.414,4.688,0.555,7.039,0.619c1.078,0.03,2.153,0.046,3.234,0.046
		c1.278,0.009,2.562,0.009,3.839,0.009h307.283c1.276,0,2.561,0,3.839-0.009c1.078-0.007,2.156-0.021,3.235-0.046
		c2.346-0.064,4.712-0.205,7.039-0.619c2.327-0.399,4.581-1.144,6.688-2.206c4.242-2.151,7.689-5.599,9.841-9.84
		c1.092-2.143,1.781-4.334,2.201-6.694c0.42-2.322,0.555-4.688,0.619-7.035c0.03-1.078,0.046-2.156,0.05-3.229
		c0.01-1.283,0.01-2.561,0.01-3.844V54.034c0-1.284,0-2.562-0.01-3.846c-0.004-1.076-0.02-2.153-0.05-3.229
		c-0.03-2.358-0.236-4.712-0.619-7.039c-0.395-2.33-1.138-4.586-2.201-6.696c-2.157-4.237-5.602-7.683-9.841-9.838
		c-2.107-1.064-4.361-1.807-6.688-2.208c-2.329-0.379-4.683-0.586-7.039-0.619c-1.084-0.03-2.162-0.04-3.235-0.05H2811.978z"/>
	<path d="M2582.779,92.409c3.454-4.19,5.785-10.009,5.151-15.812c-4.992,0.205-11.026,3.336-14.582,7.509
		c-3.22,3.704-6.006,9.635-5.236,15.321C2573.664,99.857,2579.323,96.598,2582.779,92.409z M2597.122,129.221
		c-0.11-12.544,10.233-18.581,10.713-18.88c-5.835-8.488-14.888-9.665-18.112-9.794c-7.714-0.765-15.065,4.542-18.964,4.542
		c-3.915,0-9.937-4.423-16.347-4.289c-8.406,0.121-16.159,4.887-20.487,12.412c-8.712,15.191-2.211,37.626,6.294,49.912
		c4.166,6.016,9.117,12.775,15.642,12.529c6.28-0.244,8.637-4.063,16.226-4.063c7.572-0.009,9.715,4.054,16.328,3.939
		c6.751-0.146,11.035-6.141,15.172-12.186c4.758-6.965,6.73-13.729,6.83-14.068C2610.281,149.185,2597.271,144.223,2597.122,129.221
		L2597.122,129.221z M2677.477,92.403c-2.517-2.425-5.762-4.312-9.645-5.611c-3.85-1.283-8.473-1.932-13.738-1.932
		c-3.374-0.014-6.746,0.16-10.101,0.525c-2.796,0.312-5.583,0.704-8.356,1.174l-0.813,0.139v88.197h8.053v-37.156
		c2.709,0.463,5.814,0.708,9.24,0.708c4.558,0,8.826-0.584,12.69-1.727c3.718-1.058,7.18-2.863,10.174-5.307
		c2.885-2.412,5.203-5.426,6.794-8.831c1.648-3.495,2.487-7.603,2.487-12.227c0-3.823-0.605-7.262-1.782-10.224
		C2681.339,97.25,2679.641,94.624,2677.477,92.403L2677.477,92.403z M2670.077,126.092c-4.134,3.464-9.982,5.221-17.406,5.221
		c-2.044,0-3.974-0.089-5.748-0.254c-1.362-0.124-2.714-0.351-4.042-0.68V92.873c1.063-0.194,2.381-0.379,3.928-0.543
		c1.964-0.21,4.323-0.315,7.029-0.315c3.107-0.032,6.203,0.37,9.201,1.192c2.554,0.703,4.953,1.878,7.074,3.464
		c1.931,1.498,3.449,3.446,4.504,5.791c1.063,2.377,1.597,5.212,1.597,8.422C2676.209,117.549,2674.143,122.667,2670.077,126.092
		L2670.077,126.092z M2732.391,166.638c-0.09-2.495-0.124-5.002-0.124-7.498v-24.516c0-2.907-0.294-5.871-0.869-8.817
		c-0.554-2.93-1.688-5.721-3.335-8.208c-1.637-2.456-3.928-4.483-6.794-6.03c-2.866-1.543-6.591-2.322-11.078-2.322
		c-3.274,0-6.475,0.424-9.495,1.268c-3.172,0.914-6.172,2.339-8.882,4.224l-0.653,0.455l2.721,6.365l0.983-0.665
		c2.147-1.441,4.496-2.559,6.97-3.314c2.5-0.783,5.102-1.183,7.722-1.189c3.356,0,6.036,0.609,7.948,1.807
		c1.942,1.214,3.406,2.717,4.35,4.473c0.982,1.813,1.626,3.74,1.911,5.741c0.304,2.083,0.448,3.944,0.448,5.542v0.708
		c-11.936-0.055-21.257,1.932-27.446,5.921c-6.495,4.184-9.79,10.14-9.79,17.697c0,2.176,0.389,4.368,1.158,6.535
		c0.778,2.19,1.962,4.152,3.51,5.83c1.558,1.697,3.569,3.081,5.975,4.113c2.397,1.044,5.218,1.568,8.367,1.568
		c4.461,0.074,8.85-1.126,12.651-3.459c1.658-1.023,3.131-2.188,4.388-3.439c0.535-0.539,1.048-1.104,1.532-1.688h0.311l0.739,7.157
		h7.763l-0.215-1.146C2732.729,171.402,2732.474,169.025,2732.391,166.638L2732.391,166.638z M2724.213,154.077
		c0,0.858-0.203,2.037-0.592,3.45c-0.522,1.529-1.251,2.979-2.168,4.309c-2.04,2.985-5.001,5.222-8.432,6.365
		c-2.082,0.685-4.265,1.017-6.455,0.982c-1.445,0.001-2.88-0.243-4.243-0.724c-1.324-0.46-2.538-1.188-3.569-2.136
		c-1.08-1.022-1.934-2.258-2.508-3.629c-0.633-1.464-0.952-3.275-0.952-5.383c0-3.449,0.928-6.25,2.751-8.297
		c1.962-2.181,4.426-3.852,7.179-4.867c3.118-1.173,6.382-1.918,9.7-2.212c3.087-0.298,6.188-0.433,9.289-0.404V154.077
		L2724.213,154.077z M2787.041,110.68l-15.026,40.853c-0.938,2.466-1.813,4.951-2.612,7.372c-0.389,1.208-0.758,2.353-1.121,3.441
		h-0.285c-0.377-1.192-0.759-2.384-1.148-3.571c-0.779-2.396-1.617-4.746-2.477-6.988l-16.07-41.106h-8.591l22.989,59.1
		c0.604,1.422,0.693,2.076,0.693,2.341c0,0.08-0.029,0.563-0.704,2.361c-1.255,3.206-2.893,6.25-4.878,9.066
		c-1.841,2.505-3.528,4.542-5.031,6.045c-1.747,1.747-3.549,3.179-5.383,4.264c-1.87,1.103-3.578,1.996-5.09,2.67l-0.87,0.39
		l2.802,6.804l0.889-0.329c0.729-0.274,2.096-0.899,4.172-1.911c2.097-1.034,4.419-2.672,6.895-4.888
		c2.193-1.932,4.144-4.127,5.801-6.535c1.699-2.437,3.396-5.297,5.063-8.471c1.647-3.172,3.296-6.775,4.903-10.725
		c1.607-3.969,3.335-8.406,5.117-13.174l18.565-47.008H2787.041L2787.041,110.68z"/>
</g>
</svg>
